:FULLY-SPECIFIED
:FORCE-ALL-JOINTS-BE-3DOF
:DEGREES
372
root 9.32837 17.0694 16.09 6.25802 4.02979 -2.99652
lfemur -35.0152 5.63579 -17.9025
ltibia 56.5208 -0 0
lfoot -14.8141 11.8801 8.71841e-05
ltoes -3.03359 0 0
rfemur -13.368 6.18028 28.9941
rtibia 29.3053 -0 0
rfoot -19.1525 2.99819 -0.00091489
rtoes -13.878 0 0
lowerback -5.77887 0.259397 0.0679224
upperback -0.728172 0.269438 2.75792
thorax 2.47766 0.124721 2.82667
lowerneck -19.9141 -6.22123 -12.5889
upperneck 21.3603 -8.07519 12.733
head 11.3021 -3.21916 5.5136
lclavicle 1.14715e-15 5.63225e-15 0
lhumerus -46.6106 -18.2477 97.8218
lradius 28.4171 -0 0
lwrist 12.3798 0 0
lhand -14.6719 -22.3511 0.000198021
lfingers 7.12502 0 0
lthumb 11.4812 7.31492 0.000286645
rclavicle 1.14715e-15 5.63225e-15 0
rhumerus -33.4074 18.266 -84.0987
rradius 44.2115 -0 0
rwrist -23.1986 0 0
rhand -31.0962 -23.9847 -0.00426087
rfingers 7.12502 0 0
rthumb -4.37595 -53.9192 -0.00413516
373
root 9.33553 17.0711 16.2112 6.20458 3.72204 -3.12444
lfemur -35.7151 5.4973 -17.8881
ltibia 55.1608 0 0
lfoot -14.928 11.8154 0
ltoes -3.24045 0 0
rfemur -12.5453 6.16655 29.1828
rtibia 28.751 0 0
rfoot -19.2392 3.15822 0
rtoes -14.1518 0 0
lowerback -5.76685 0.424179 0.180414
upperback -0.679561 0.480195 2.78835
thorax 2.51135 0.230361 2.81161
lowerneck -19.9861 -6.24637 -12.4559
upperneck 21.49 -8.1014 12.524
head 11.3516 -3.24089 5.4093
lclavicle -9.19379e-16 1.07344e-14 0
lhumerus -46.8679 -17.7878 97.599
lradius 28.256 0 0
lwrist 12.1942 0 0
lhand -14.627 -22.3701 0
lfingers 7.12502 0 0
lthumb 11.5245 7.29306 0
rclavicle -9.19379e-16 1.07344e-14 0
rhumerus -32.9454 18.3189 -83.9713
rradius 44.3713 0 0
rwrist -23.2521 0 0
rhand -31.2908 -23.7895 0
rfingers 7.12502 0 0
rthumb -4.56391 -53.7204 0
374
root 9.34151 17.0773 16.3375 6.12148 3.41714 -3.29096
lfemur -36.3444 5.37529 -17.8099
ltibia 53.7524 -0 0
lfoot -15.0093 11.655 8.26108e-05
ltoes -4.15438 0 0
rfemur -11.613 6.16276 29.4284
rtibia 28.0656 -0 0
rfoot -19.2912 3.24233 0.00042996
rtoes -14.7353 0 0
lowerback -5.73979 0.577458 0.31682
upperback -0.618621 0.673511 2.83604
thorax 2.55112 0.32744 2.79935
lowerneck -20.0233 -6.25535 -12.4037
upperneck 21.5827 -8.10801 12.4228
head 11.3869 -3.24952 5.36302
lclavicle -4.70043e-15 6.62618e-15 0
lhumerus -47.0559 -17.1977 97.2623
lradius 28.0643 -0 0
lwrist 11.8415 0 0
lhand -14.4 -22.3826 -0.000290723
lfingers 7.12502 0 0
lthumb 11.7433 7.26723 -0.000486108
rclavicle -4.70043e-15 6.62618e-15 0
rhumerus -32.4896 18.3887 -83.867
rradius 44.4886 -0 0
rwrist -23.2993 0 0
rhand -31.441 -23.9422 0.00327436
rfingers 7.12502 0 0
rthumb -4.70897 -53.8701 0.00317185
375
root 9.34748 17.0835 16.4637 6.00852 3.11233 -3.4963
lfemur -36.8981 5.26997 -17.6687
ltibia 52.2687 -0 0
lfoot -15.0321 11.4104 -4.39798e-05
ltoes -5.63936 0 0
rfemur -10.5778 6.15704 29.7282
rtibia 27.2595 -0 0
rfoot -19.3128 3.26911 6.06252e-05
rtoes -15.583 0 0
lowerback -5.69609 0.723708 0.479747
upperback -0.544921 0.855285 2.90095
thorax 2.59618 0.418947 2.78864
lowerneck -20.049 -6.25464 -12.4027
upperneck 21.6584 -8.10177 12.3873
head 11.4175 -3.24951 5.35276
lclavicle -8.48149e-15 2.51797e-15 0
lhumerus -47.1728 -16.4927 96.8294
lradius 27.8263 -0 0
lwrist 11.3244 0 0
lhand -14.022 -22.3869 -0.000682599
lfingers 7.12502 0 0
lthumb 12.1078 7.2407 -0.00106803
rclavicle -8.48149e-15 2.51797e-15 0
rhumerus -32.0364 18.4638 -83.7758
rradius 44.5691 -0 0
rwrist -23.353 0 0
rhand -31.5701 -24.3632 0.00513097
rfingers 7.12502 0 0
rthumb -4.83361 -54.2883 0.00496643
376
root 9.35346 17.0897 16.59 5.88639 2.80863 -3.71677
lfemur -37.3941 5.17092 -17.4916
ltibia 50.7202 -0 0
lfoot -15.0132 11.1155 -0.000181483
ltoes -7.43652 0 0
rfemur -9.48451 6.14436 30.0479
rtibia 26.3708 -0 0
rfoot -19.2999 3.26765 -0.00064892
rtoes -16.5561 0 0
lowerback -5.65152 0.865041 0.651162
upperback -0.465986 1.02966 2.97388
thorax 2.647 0.506833 2.781
lowerneck -20.0599 -6.24732 -12.4381
upperneck 21.718 -8.08761 12.3999
head 11.4422 -3.24398 5.36837
lclavicle -1.22625e-14 -1.59025e-15 0
lhumerus -47.2563 -15.733 96.3562
lradius 27.5633 -0 0
lwrist 10.7237 0 0
lhand -13.5789 -22.3921 -0.00107613
lfingers 7.12502 0 0
lthumb 12.5351 7.20957 -0.00149801
rclavicle -1.22625e-14 -1.59025e-15 0
rhumerus -31.5907 18.5289 -83.6937
rradius 44.6184 -0 0
rwrist -23.3983 0 0
rhand -31.6807 -24.9258 0.00524082
rfingers 7.12502 0 0
rthumb -4.94048 -54.8484 0.00506889
377
root 9.35944 17.0958 16.7163 5.7755 2.50734 -3.9289
lfemur -37.8502 5.0672 -17.3056
ltibia 49.1173 -0 0
lfoot -14.9694 10.8041 -0.000167602
ltoes -9.28705 0 0
rfemur -8.37824 6.12138 30.3535
rtibia 25.4373 -0 0
rfoot -19.2486 3.26699 -0.00118799
rtoes -17.5162 0 0
lowerback -5.62196 1.00369 0.812954
upperback -0.38939 1.20081 3.0456
thorax 2.70403 0.593048 2.77796
lowerneck -20.0523 -6.23643 -12.495
upperneck 21.7626 -8.0704 12.4429
head 11.4597 -3.23604 5.39965
lclavicle -1.60436e-14 -5.69847e-15 0
lhumerus -47.3415 -14.9789 95.8971
lradius 27.2969 -0 0
lwrist 10.12 0 0
lhand -13.1567 -22.4071 -0.00126909
lfingers 7.12502 0 0
lthumb 12.942 7.16996 -0.00154856
rclavicle -1.60436e-14 -5.69847e-15 0
rhumerus -31.1577 18.5686 -83.6171
rradius 44.6421 -0 0
rwrist -23.4203 0 0
rhand -31.7757 -25.5033 0.00390041
rfingers 7.12502 0 0
rthumb -5.0322 -55.4237 0.00376883
378
root 9.36541 17.102 16.8425 5.69599 2.20997 -4.10944
lfemur -38.2841 4.94752 -17.1375
ltibia 47.4704 -0 0
lfoot -14.9176 10.51 -2.3121e-05
ltoes -10.9321 0 0
rfemur -7.30397 6.08651 30.6105
rtibia 24.4971 -0 0
rfoot -19.155 3.29622 -0.00108196
rtoes -18.3246 0 0
lowerback -5.62334 1.14198 0.946938
upperback -0.322757 1.37297 3.10684
thorax 2.76773 0.679535 2.78105
lowerneck -20.0229 -6.22497 -12.5588
upperneck 21.7933 -8.05492 12.4988
head 11.469 -3.22877 5.43646
lclavicle -1.98246e-14 -9.80668e-15 0
lhumerus -47.4608 -14.291 95.5054
lradius 27.0485 -0 0
lwrist 9.59413 0 0
lhand -12.8417 -22.4407 -0.000979102
lfingers 7.12502 0 0
lthumb 13.2458 7.11796 -0.0010526
rclavicle -1.98246e-14 -9.80668e-15 0
rhumerus -30.7427 18.5678 -83.5424
rradius 44.6459 -0 0
rwrist -23.4042 0 0
rhand -31.8578 -25.9691 0.00182463
rfingers 7.12502 0 0
rthumb -5.11141 -55.8875 0.0017603
379
root 9.37139 17.1082 16.9688 5.66776 1.91817 -4.23539
lfemur -38.7135 4.80031 -17.0136
ltibia 45.7901 0 0
lfoot -14.8744 10.2669 0
ltoes -12.1128 0 0
rfemur -6.30664 6.0398 30.7847
rtibia 23.5881 0 0
rfoot -19.015 3.3844 0
rtoes -18.8427 0 0
lowerback -5.67169 1.28228 1.03485
upperback -0.273756 1.55038 3.14829
thorax 2.83859 0.768233 2.79179
lowerneck -19.9681 -6.21595 -12.6145
upperneck 21.8109 -8.04593 12.55
head 11.4688 -3.22526 5.4686
lclavicle -2.36057e-14 -1.39149e-14 0
lhumerus -47.6448 -13.7301 95.2333
lradius 26.8395 0 0
lwrist 9.22672 0 0
lhand -12.7198 -22.5018 0
lfingers 7.12502 0 0
lthumb 13.3633 7.0497 0
rclavicle -2.36057e-14 -1.39149e-14 0
rhumerus -30.3509 18.5109 -83.4663
rradius 44.6354 0 0
rwrist -23.335 0 0
rhand -31.9296 -26.1967 0
rfingers 7.12502 0 0
rthumb -5.18078 -56.1134 0
380
root 9.38114 17.1045 17.0948 5.70917 1.62628 -4.28036
lfemur -39.1451 4.62425 -16.965
ltibia 44.0388 -0 0
lfoot -14.8229 10.0582 -0.000239712
ltoes -12.768 0 0
rfemur -5.41642 5.97369 30.8428
rtibia 22.7288 -0 0
rfoot -18.8237 3.54201 0.00125423
rtoes -19.066 0 0
lowerback -5.78716 1.42689 1.05185
upperback -0.249742 1.73763 3.16139
thorax 2.9195 0.861093 2.81615
lowerneck -19.8664 -6.20655 -12.6685
upperneck 21.8092 -8.04231 12.6073
head 11.4532 -3.22505 5.50154
lclavicle -1.97832e-14 -1.07344e-14 0
lhumerus -47.9016 -13.3055 95.0962
lradius 26.6595 -0 0
lwrist 9.02575 0 0
lhand -12.8684 -22.6243 0.00175492
lfingers 7.12502 0 0
lthumb 13.2201 6.93584 0.00156067
rclavicle -1.97832e-14 -1.07344e-14 0
rhumerus -29.9917 18.3802 -83.386
rradius 44.6208 -0 0
rwrist -23.1965 0 0
rhand -31.9859 -26.1713 -0.000959122
rfingers 7.12502 0 0
rthumb -5.23516 -56.0867 -0.000921651
381
root 9.3909 17.1008 17.2209 5.80731 1.33196 -4.25809
lfemur -39.5659 4.42748 -16.9764
ltibia 42.2008 -0 0
lfoot -14.7464 9.85347 -0.000437248
ltoes -13.0925 0 0
rfemur -4.60332 5.88988 30.8051
rtibia 21.8926 -0 0
rfoot -18.5833 3.74788 0.00176848
rtoes -19.1046 0 0
lowerback -5.96127 1.57429 1.00729
upperback -0.246186 1.93228 3.15174
thorax 3.01069 0.956916 2.85413
lowerneck -19.7162 -6.19369 -12.734
upperneck 21.7859 -8.03998 12.6871
head 11.422 -3.22556 5.54449
lclavicle -1.59608e-14 -7.5538e-15 0
lhumerus -48.2056 -12.97 95.0544
lradius 26.4893 -0 0
lwrist 8.92823 0 0
lhand -13.234 -22.8079 0.00329394
lfingers 7.12502 0 0
lthumb 12.8675 6.77364 0.00281764
rclavicle -1.59608e-14 -7.5538e-15 0
rhumerus -29.6632 18.1845 -83.3042
rradius 44.5997 -0 0
rwrist -22.9975 0 0
rhand -32.0235 -25.9912 -0.001233
rfingers 7.12502 0 0
rthumb -5.2714 -55.9057 -0.00118444
